<?xml version="1.0" encoding="utf-8"?>
<!-- Generator: Adobe Illustrator 24.0.2, SVG Export Plug-In . SVG Version: 6.00 Build 0)  -->
<svg version="1.1" id="Livello_1" xmlns="http://www.w3.org/2000/svg" xmlns:xlink="http://www.w3.org/1999/xlink" x="0px" y="0px"
	 viewBox="0 0 646 646" style="enable-background:new 0 0 646 646;" xml:space="preserve">
<style type="text/css">
	.st0{fill:none;stroke:#000000;stroke-miterlimit:10;}
	.st1{fill:#4A2A85;}
</style>
<g>
	<path d="M348.68,325.7"/>
	<g>
		<path class="st0" d="M368.09,221.87"/>
	</g>
	<g>
		<path class="st0" d="M452.85,253.87"/>
	</g>
	<g>
		<path class="st1" d="M125.98,290.58c-0.61-0.59-0.92-1.36-0.92-2.32v-50c0-0.96,0.31-1.73,0.92-2.32
			c0.61-0.59,1.43-0.88,2.44-0.88h15.6c9.01,0,15.99,2.44,20.92,7.32c4.93,4.88,7.4,11.83,7.4,20.84c0,9.01-2.48,15.97-7.44,20.88
			c-4.96,4.91-11.92,7.36-20.88,7.36h-15.6C127.41,291.46,126.59,291.17,125.98,290.58z M165.54,263.22
			c0-15.04-7.31-22.56-21.92-22.56h-12v45.2h12C158.23,285.86,165.54,278.32,165.54,263.22z"/>
		<path class="st1" d="M215.54,283.14c0.43,0.48,0.64,1.09,0.64,1.84c0,1.33-0.93,2.56-2.8,3.68c-1.92,1.12-3.95,1.96-6.08,2.52
			c-2.13,0.56-4.21,0.84-6.24,0.84c-6.03,0-10.79-1.79-14.28-5.36c-3.49-3.57-5.24-8.51-5.24-14.8c0-4,0.77-7.53,2.32-10.6
			c1.55-3.07,3.72-5.45,6.52-7.16c2.8-1.71,5.99-2.56,9.56-2.56c5.07,0,9.09,1.65,12.08,4.96c2.99,3.31,4.48,7.79,4.48,13.44
			c0,1.07-0.21,1.84-0.64,2.32c-0.43,0.48-1.12,0.72-2.08,0.72h-25.76c0.48,9.17,4.83,13.76,13.04,13.76c2.08,0,3.87-0.28,5.36-0.84
			c1.49-0.56,3.09-1.32,4.8-2.28c1.39-0.8,2.32-1.2,2.8-1.2C214.61,282.42,215.11,282.66,215.54,283.14z M191.82,259.78
			c-2.05,2.13-3.27,5.15-3.64,9.04h22.64c-0.11-3.95-1.09-6.97-2.96-9.08c-1.87-2.11-4.48-3.16-7.84-3.16
			C196.61,256.58,193.87,257.65,191.82,259.78z"/>
		<path class="st1" d="M227.58,291.02c-0.61-0.56-0.92-1.35-0.92-2.36v-50.8c0-1.01,0.31-1.8,0.92-2.36
			c0.61-0.56,1.4-0.84,2.36-0.84c0.91,0,1.67,0.28,2.28,0.84c0.61,0.56,0.92,1.35,0.92,2.36v50.8c0,1.01-0.31,1.8-0.92,2.36
			c-0.61,0.56-1.37,0.84-2.28,0.84C228.98,291.86,228.19,291.58,227.58,291.02z"/>
		<path class="st1" d="M246.02,242.18c-0.8-0.75-1.2-1.73-1.2-2.96c0-1.17,0.4-2.13,1.2-2.88c0.8-0.75,1.84-1.12,3.12-1.12
			c1.28,0,2.32,0.37,3.12,1.12c0.8,0.75,1.2,1.71,1.2,2.88c0,1.23-0.4,2.21-1.2,2.96c-0.8,0.75-1.84,1.12-3.12,1.12
			C247.86,243.3,246.82,242.93,246.02,242.18z M246.78,291.02c-0.61-0.56-0.92-1.35-0.92-2.36V254.9c0-1.01,0.31-1.8,0.92-2.36
			c0.61-0.56,1.4-0.84,2.36-0.84c0.96,0,1.73,0.28,2.32,0.84c0.59,0.56,0.88,1.35,0.88,2.36v33.76c0,1.07-0.29,1.87-0.88,2.4
			c-0.59,0.53-1.36,0.8-2.32,0.8C248.18,291.86,247.39,291.58,246.78,291.02z"/>
		<path class="st1" d="M295.94,251.78c0.8,0,1.52,0.27,2.16,0.8c0.64,0.53,0.96,1.2,0.96,2c0,0.48-0.11,0.91-0.32,1.28l-15.6,33.6
			c-0.32,0.69-0.8,1.24-1.44,1.64c-0.64,0.4-1.33,0.6-2.08,0.6c-0.69,0-1.36-0.2-2-0.6s-1.15-0.95-1.52-1.64l-15.52-33.6
			c-0.21-0.37-0.32-0.77-0.32-1.2c0-0.8,0.36-1.49,1.08-2.08c0.72-0.59,1.51-0.88,2.36-0.88c0.53,0,1.05,0.16,1.56,0.48
			c0.51,0.32,0.89,0.77,1.16,1.36l13.36,30l13.36-29.84C293.73,252.42,294.66,251.78,295.94,251.78z"/>
		<path class="st1" d="M338.02,283.14c0.43,0.48,0.64,1.09,0.64,1.84c0,1.33-0.93,2.56-2.8,3.68c-1.92,1.12-3.95,1.96-6.08,2.52
			c-2.13,0.56-4.21,0.84-6.24,0.84c-6.03,0-10.79-1.79-14.28-5.36c-3.49-3.57-5.24-8.51-5.24-14.8c0-4,0.77-7.53,2.32-10.6
			c1.55-3.07,3.72-5.45,6.52-7.16c2.8-1.71,5.99-2.56,9.56-2.56c5.07,0,9.09,1.65,12.08,4.96c2.99,3.31,4.48,7.79,4.48,13.44
			c0,1.07-0.21,1.84-0.64,2.32c-0.43,0.48-1.12,0.72-2.08,0.72H310.5c0.48,9.17,4.83,13.76,13.04,13.76c2.08,0,3.87-0.28,5.36-0.84
			s3.09-1.32,4.8-2.28c1.39-0.8,2.32-1.2,2.8-1.2C337.09,282.42,337.59,282.66,338.02,283.14z M314.3,259.78
			c-2.05,2.13-3.27,5.15-3.64,9.04h22.64c-0.11-3.95-1.09-6.97-2.96-9.08c-1.87-2.11-4.48-3.16-7.84-3.16
			C319.09,256.58,316.35,257.65,314.3,259.78z"/>
		<path class="st1" d="M389.66,267.3c1.79,2.35,2.68,5.28,2.68,8.8c0,4.96-1.63,8.76-4.88,11.4c-3.25,2.64-7.87,3.96-13.84,3.96
			h-20.16c-1.01,0-1.83-0.29-2.44-0.88c-0.61-0.59-0.92-1.36-0.92-2.32v-50c0-0.96,0.31-1.73,0.92-2.32
			c0.61-0.59,1.43-0.88,2.44-0.88h19.28c5.81,0,10.32,1.28,13.52,3.84s4.8,6.19,4.8,10.88c0,3.04-0.79,5.65-2.36,7.84
			c-1.57,2.19-3.77,3.81-6.6,4.88C385.35,263.36,387.87,264.96,389.66,267.3z M356.58,260.1h15.2c4.21,0,7.4-0.85,9.56-2.56
			c2.16-1.71,3.24-4.19,3.24-7.44c0-6.4-4.27-9.6-12.8-9.6h-15.2V260.1z M382.78,283.58c2.11-1.63,3.16-4.17,3.16-7.64
			c0-6.93-4.32-10.4-12.96-10.4h-16.4v20.48h16.4C377.41,286.02,380.67,285.21,382.78,283.58z"/>
		<path class="st1" d="M410.14,289.54c-2.8-1.65-4.96-4.01-6.48-7.08c-1.52-3.07-2.28-6.63-2.28-10.68c0-4.05,0.76-7.61,2.28-10.68
			c1.52-3.07,3.68-5.43,6.48-7.08c2.8-1.65,6.04-2.48,9.72-2.48s6.93,0.83,9.76,2.48c2.83,1.65,5,4.01,6.52,7.08
			c1.52,3.07,2.28,6.63,2.28,10.68c0,4.05-0.76,7.61-2.28,10.68c-1.52,3.07-3.69,5.43-6.52,7.08c-2.83,1.65-6.08,2.48-9.76,2.48
			S412.94,291.2,410.14,289.54z M428.7,282.86c2.05-2.53,3.08-6.23,3.08-11.08c0-4.75-1.04-8.41-3.12-11
			c-2.08-2.59-5.01-3.88-8.8-3.88c-3.79,0-6.72,1.29-8.8,3.88c-2.08,2.59-3.12,6.25-3.12,11c0,4.8,1.03,8.48,3.08,11.04
			c2.05,2.56,5,3.84,8.84,3.84S426.64,285.4,428.7,282.86z"/>
		<path class="st1" d="M476.46,289.54c-2.8-1.65-4.96-4.01-6.48-7.08c-1.52-3.07-2.28-6.63-2.28-10.68c0-4.05,0.76-7.61,2.28-10.68
			c1.52-3.07,3.68-5.43,6.48-7.08c2.8-1.65,6.04-2.48,9.72-2.48s6.93,0.83,9.76,2.48c2.83,1.65,5,4.01,6.52,7.08
			c1.52,3.07,2.28,6.63,2.28,10.68c0,4.05-0.76,7.61-2.28,10.68c-1.52,3.07-3.69,5.43-6.52,7.08c-2.83,1.65-6.08,2.48-9.76,2.48
			S479.26,291.2,476.46,289.54z M495.02,282.86c2.05-2.53,3.08-6.23,3.08-11.08c0-4.75-1.04-8.41-3.12-11
			c-2.08-2.59-5.01-3.88-8.8-3.88c-3.79,0-6.72,1.29-8.8,3.88c-2.08,2.59-3.12,6.25-3.12,11c0,4.8,1.03,8.48,3.08,11.04
			c2.05,2.56,5,3.84,8.84,3.84S492.96,285.4,495.02,282.86z"/>
	</g>
	<g>
		<g>
			<path class="st1" d="M489.99,268.59c-3.02-6.98-5.93-14.02-9.12-20.92c-3.1-6.72-7.08-12.96-9.98-19.79
				c-0.72,1.25-1.44,2.51-2.16,3.76c2.29-0.28,4.6-0.46,6.91-0.5c1.88-0.03,3.93-0.05,5.63,0.9c2.73,1.52,2.47,5.29-0.65,6.07
				c-3.12,0.78-1.8,5.6,1.33,4.82c5.94-1.48,8.22-8.83,4.14-13.4c-4.12-4.62-11.89-3.56-17.35-2.88c-2.01,0.25-2.95,1.9-2.16,3.76
				c2.9,6.83,6.88,13.07,9.98,19.79c3.19,6.9,6.09,13.95,9.12,20.92c0.54,1.24,2.35,1.52,3.42,0.9
				C490.37,271.26,490.53,269.83,489.99,268.59L489.99,268.59z"/>
			<path class="st1" d="M393.34,204.89c-3.2,1.2-5.01,3.79-4.35,7.24c0.58,3.01,2.88,5.56,4.97,7.66c0-1.18,0-2.36,0-3.54
				c-0.26,0.33,0.04,0.03,0.1-0.03c0.31-0.27,0.15,0.13,0.01-0.04c0,0,0.65-0.04-0.06,0c-0.18,0.01-0.36,0.01-0.54,0.01
				c-0.78,0-1.56-0.08-2.34-0.12c-1.73-0.08-3.32,0.1-4.67,1.27c-2.88,2.48-2.64,6.76,0.28,9.07c1.6,1.26,3.53,1.84,5.5,2.23
				c0.92,0.18,1.84,0.33,2.77,0.48c0.44,0.08,0.89,0.14,1.33,0.22c0.19,0.03,0.53,0.2,0.69,0.15c0.18,0.07,0.13,0-0.14-0.21
				c0.16-0.51,0.32-1.03,0.47-1.54c-0.07-0.02-1.07,0.5-1.21,0.55c-0.51,0.17-1.05,0.34-1.58,0.41c-1.02,0.14-2.03,0.07-3.02,0.44
				c-2.02,0.76-4.11,2.65-4.04,4.96c0.07,2.32,2.02,4.11,3.81,5.27c1.8,1.17,3.71,2.12,5.7,2.9c3.54,1.39,7.32,1.93,11.07,2.36
				c3.6,0.41,7.21,0.99,10.83,1.25c3.43,0.24,6.89,0.26,10.33,0.22c3.22-0.04,6.42-0.17,9.61-0.61c3.92-0.55,7.65-2.12,11.02-4.15
				c6.92-4.17,12.24-11.51,14.86-19.09c2.9-8.38,1.75-18.17-4.45-24.77c-2.72-2.9-6.36-5.12-10.25-6c-4.28-0.96-8.54-0.25-12.5,1.55
				c-8.29,3.77-13.97,11.49-20.89,17.1c-1.38,1.12-3.05,2.21-4.86,2.41c-1.34,0.15-2.59-0.26-3.81-0.89c-3.03-1.58-5.54-4-8.62-5.47
				c-1.71-0.82-3.46-1.34-5.37-1.39c-3.22-0.07-3.22,4.93,0,5c2.7,0.06,5.32,2.1,7.64,3.74c2.74,1.93,5.65,3.82,9.1,4.02
				c4.15,0.25,7.73-2.3,10.67-4.93c3.26-2.92,6.37-6.02,9.62-8.94c5.42-4.87,12.21-9.57,19.76-6.76
				c6.95,2.59,10.68,9.77,10.48,16.92c-0.11,3.95-1.33,7.72-3.22,11.16c-1.71,3.12-3.69,6.09-6.25,8.59
				c-2.62,2.56-5.85,4.51-9.26,5.83c-2.69,1.04-5.51,1.38-8.37,1.53c-3.18,0.17-6.37,0.19-9.56,0.15c-1.61-0.02-3.23-0.07-4.84-0.16
				c-0.64-0.04-1.27-0.08-1.9-0.14c-0.28-0.03-0.55-0.06-0.83-0.08c-0.11-0.01-0.22-0.03-0.33-0.04c0.67,0.08-0.25-0.04-0.38-0.06
				c-7.09-1-14.56-0.97-20.95-4.61c-0.72-0.41-1.52-0.83-2.17-1.34c-0.24-0.19-0.4-0.61-0.63-0.75c0.25,0.15-0.11-0.19-0.12-0.19
				c-0.09,0.81-0.14,1.08-0.14,0.79c0-0.06,0.04-0.11,0.12-0.14c0.25-0.1,0.46-0.43,0.74-0.54c0.3-0.12,0.55-0.1,0.87-0.13
				c1.09-0.08,2.16-0.21,3.21-0.55c2.05-0.66,4.49-1.79,4.52-4.29c0.02-2.49-2.11-4-4.33-4.4c-1.78-0.32-3.58-0.54-5.33-0.99
				c-0.7-0.18-1.37-0.36-1.97-0.76c-0.22-0.15-0.48-0.34-0.63-0.5c0.1,0.11-0.26-0.37-0.13-0.17c0.07,0.11-0.2-0.2-0.05-0.1
				c0.12,0.08,0.03-0.26-0.02-0.05c-0.07,0.27,0.02-0.1,0.03-0.13c0.04-0.36,0.05-0.22-0.02-0.05c0.06-0.13,0.14-0.28,0.22-0.4
				c0.02-0.03,0.23-0.32,0.06-0.1c-0.18,0.23,0.1-0.1,0.16-0.15c0.53-0.45-0.3,0.17-0.13,0.02c0.05-0.04,0.25-0.07,0.31-0.07
				c-0.46,0.04-0.01,0.02,0.06,0.02c0.32,0,0.65,0,0.97,0.01c0.73,0.03,1.47,0.1,2.2,0.12c1.48,0.03,3.29-0.15,4.29-1.4
				c0.85-1.06,1.03-2.49,0-3.54c-1.26-1.28-2.93-3.08-3.43-4.52c-0.06-0.18-0.23-0.83-0.22-0.72c0.04,0.23,0-0.97-0.03-0.47
				c0.01-0.15,0.13-0.32-0.01-0.11c0.04-0.06,0.2-0.33,0.04-0.15c0.22-0.24,0.44-0.42,0.83-0.57c1.26-0.47,2.13-1.69,1.75-3.08
				C396.08,205.42,394.61,204.41,393.34,204.89L393.34,204.89z"/>
			<path class="st1" d="M445.17,212.82c3.22,0,3.22-5,0-5C441.95,207.82,441.95,212.82,445.17,212.82L445.17,212.82z"/>
			<path class="st1" d="M453.34,214.48c3.22,0,3.22-5,0-5C450.12,209.48,450.12,214.48,453.34,214.48L453.34,214.48z"/>
		</g>
	</g>
	<g>
		<g>
			<path class="st1" d="M422.79,272.29c12.63-8.83,27.28-13.85,42.24-17.09c4.29-0.93,8.62-1.72,12.95-2.43
				c1.33-0.22,2.08-1.87,1.75-3.08c-0.39-1.42-1.74-1.97-3.08-1.75c-15.4,2.52-30.77,6.15-44.81,13.15
				c-4.02,2.01-7.89,4.3-11.58,6.88c-1.1,0.77-1.62,2.19-0.9,3.42C420.01,272.48,421.68,273.06,422.79,272.29L422.79,272.29z"/>
		</g>
	</g>
</g>
<g>
</g>
<g>
</g>
<g>
</g>
<g>
</g>
<g>
</g>
<g>
</g>
</svg>
