<?xml version="1.0" encoding="utf-8"?>
<!-- Generator: Adobe Illustrator 24.1.2, SVG Export Plug-In . SVG Version: 6.00 Build 0)  -->
<svg version="1.1" id="Livello_1" xmlns="http://www.w3.org/2000/svg" xmlns:xlink="http://www.w3.org/1999/xlink" x="0px" y="0px"
	 viewBox="0 0 841.89 311.81" style="enable-background:new 0 0 841.89 311.81;" xml:space="preserve">
<style type="text/css">
	.st0{fill:#020203;}
	.st1{fill:none;stroke:#020203;stroke-miterlimit:10;}
	.st2{fill:#4A2A85;}
</style>
<g>
	<path class="st0" d="M494.66,303.57"/>
	<g>
		<path class="st1" d="M537.2,76"/>
	</g>
	<g>
		<path class="st1" d="M722.98,146.13"/>
	</g>
	<g>
		<path class="st2" d="M6.55,226.59c-1.34-1.29-2.02-2.98-2.02-5.08V111.92c0-2.1,0.68-3.79,2.02-5.08
			c1.34-1.29,3.13-1.93,5.35-1.93h34.19c19.75,0,35.05,5.35,45.85,16.04s16.22,25.93,16.22,45.68c0,19.75-5.44,35-16.31,45.76
			s-26.13,16.13-45.76,16.13H11.89C9.68,228.52,7.88,227.89,6.55,226.59z M93.25,166.63c0-32.96-16.02-49.45-48.04-49.45h-26.3
			v99.07h26.3C77.23,216.25,93.25,199.72,93.25,166.63z"/>
		<path class="st2" d="M202.84,210.29c0.94,1.05,1.4,2.39,1.4,4.03c0,2.92-2.04,5.61-6.14,8.07c-4.21,2.45-8.66,4.3-13.33,5.52
			c-4.67,1.23-9.23,1.84-13.68,1.84c-13.22,0-23.65-3.92-31.3-11.75c-7.65-7.82-11.48-18.65-11.48-32.44
			c0-8.77,1.69-16.5,5.08-23.23s8.15-11.95,14.29-15.69c6.14-3.75,13.13-5.61,20.95-5.61c11.11,0,19.92,3.62,26.48,10.87
			c6.55,7.25,9.82,17.07,9.82,29.46c0,2.35-0.46,4.03-1.4,5.08c-0.94,1.05-2.45,1.58-4.56,1.58h-56.46
			c1.05,20.1,10.59,30.16,28.58,30.16c4.56,0,8.48-0.61,11.75-1.84c3.27-1.23,6.77-2.89,10.52-5c3.05-1.75,5.08-2.63,6.14-2.63
			C200.8,208.71,201.9,209.23,202.84,210.29z M150.85,159.09c-4.49,4.67-7.17,11.29-7.98,19.81h49.62
			c-0.24-8.66-2.39-15.28-6.49-19.9c-4.1-4.62-9.82-6.93-17.18-6.93C161.35,152.07,155.35,154.42,150.85,159.09z"/>
		<path class="st2" d="M229.23,227.56c-1.34-1.23-2.02-2.96-2.02-5.17V111.04c0-2.21,0.68-3.95,2.02-5.17s3.07-1.84,5.17-1.84
			c1.99,0,3.66,0.61,5,1.84c1.34,1.23,2.02,2.96,2.02,5.17v111.34c0,2.21-0.68,3.95-2.02,5.17c-1.34,1.23-3,1.84-5,1.84
			C232.3,229.4,230.57,228.79,229.23,227.56z"/>
		<path class="st2" d="M269.65,120.51c-1.75-1.64-2.63-3.79-2.63-6.49c0-2.56,0.88-4.67,2.63-6.31c1.75-1.64,4.03-2.45,6.84-2.45
			c2.81,0,5.08,0.81,6.84,2.45c1.75,1.64,2.63,3.75,2.63,6.31c0,2.7-0.88,4.84-2.63,6.49c-1.75,1.64-4.03,2.45-6.84,2.45
			C273.68,122.97,271.4,122.15,269.65,120.51z M271.31,227.56c-1.34-1.23-2.02-2.96-2.02-5.17v-73.99c0-2.21,0.68-3.95,2.02-5.17
			c1.34-1.23,3.07-1.84,5.17-1.84c2.1,0,3.79,0.61,5.08,1.84s1.93,2.96,1.93,5.17v73.99c0,2.35-0.64,4.1-1.93,5.26
			c-1.29,1.16-2.98,1.75-5.08,1.75C274.38,229.4,272.65,228.79,271.31,227.56z"/>
		<path class="st2" d="M379.06,141.55c1.75,0,3.33,0.59,4.73,1.75c1.4,1.16,2.1,2.63,2.1,4.38c0,1.05-0.24,1.99-0.7,2.81
			l-34.19,73.64c-0.7,1.51-1.75,2.72-3.16,3.59c-1.4,0.88-2.92,1.32-4.56,1.32c-1.51,0-2.98-0.44-4.38-1.32
			c-1.4-0.88-2.52-2.08-3.33-3.59l-34.02-73.64c-0.46-0.81-0.7-1.69-0.7-2.63c0-1.75,0.79-3.27,2.37-4.56
			c1.58-1.29,3.31-1.93,5.17-1.93c1.16,0,2.3,0.35,3.42,1.05c1.12,0.7,1.95,1.69,2.54,2.98l29.28,65.75l29.28-65.4
			C374.22,142.95,376.26,141.55,379.06,141.55z"/>
		<path class="st2" d="M471.29,210.29c0.94,1.05,1.4,2.39,1.4,4.03c0,2.92-2.04,5.61-6.14,8.07c-4.21,2.45-8.66,4.3-13.33,5.52
			c-4.67,1.23-9.23,1.84-13.68,1.84c-13.22,0-23.65-3.92-31.3-11.75c-7.65-7.82-11.48-18.65-11.48-32.44
			c0-8.77,1.69-16.5,5.08-23.23c3.4-6.73,8.15-11.95,14.29-15.69c6.14-3.75,13.13-5.61,20.95-5.61c11.11,0,19.92,3.62,26.48,10.87
			c6.55,7.25,9.82,17.07,9.82,29.46c0,2.35-0.46,4.03-1.4,5.08c-0.94,1.05-2.45,1.58-4.56,1.58h-56.46
			c1.05,20.1,10.59,30.16,28.58,30.16c4.56,0,8.48-0.61,11.75-1.84c3.27-1.23,6.77-2.89,10.52-5c3.05-1.75,5.08-2.63,6.14-2.63
			C469.25,208.71,470.35,209.23,471.29,210.29z M419.3,159.09c-4.49,4.67-7.17,11.29-7.98,19.81h49.62
			c-0.24-8.66-2.39-15.28-6.49-19.9c-4.1-4.62-9.82-6.93-17.18-6.93C429.8,152.07,423.8,154.42,419.3,159.09z"/>
		<path class="st2" d="M584.48,175.57c3.92,5.15,5.87,11.57,5.87,19.29c0,10.87-3.57,19.2-10.7,24.99
			c-7.12,5.79-17.25,8.68-30.33,8.68h-44.19c-2.21,0-4.01-0.64-5.35-1.93c-1.34-1.29-2.02-2.98-2.02-5.08V111.92
			c0-2.1,0.68-3.79,2.02-5.08c1.34-1.29,3.13-1.93,5.35-1.93h42.26c12.73,0,22.62,2.81,29.63,8.42
			c7.01,5.61,10.52,13.57,10.52,23.85c0,6.66-1.73,12.38-5.17,17.18c-3.44,4.8-8.26,8.35-14.47,10.7
			C575.03,166.93,580.55,170.44,584.48,175.57z M511.97,159.79h33.32c9.23,0,16.22-1.86,20.95-5.61c4.73-3.75,7.1-9.18,7.1-16.31
			c0-14.03-9.36-21.04-28.05-21.04h-33.32V159.79z M569.4,211.25c4.62-3.57,6.93-9.14,6.93-16.75c0-15.19-9.47-22.79-28.41-22.79
			h-35.95v44.89h35.95C557.63,216.6,564.77,214.82,569.4,211.25z"/>
		<path class="st2" d="M629.36,224.31c-6.14-3.62-10.87-8.79-14.2-15.52c-3.33-6.73-5-14.53-5-23.41c0-8.88,1.67-16.68,5-23.41
			c3.33-6.73,8.07-11.9,14.2-15.52c6.14-3.62,13.24-5.44,21.3-5.44c8.07,0,15.19,1.82,21.39,5.44s10.96,8.79,14.29,15.52
			c3.33,6.73,5,14.53,5,23.41c0,8.88-1.67,16.68-5,23.41s-8.09,11.9-14.29,15.52c-6.2,3.62-13.33,5.44-21.39,5.44
			C642.6,229.75,635.5,227.95,629.36,224.31z M670.04,209.67c4.49-5.55,6.75-13.65,6.75-24.28c0-10.41-2.28-18.43-6.84-24.11
			s-10.98-8.5-19.29-8.5c-8.31,0-14.73,2.83-19.29,8.5s-6.84,13.7-6.84,24.11c0,10.52,2.26,18.59,6.75,24.2
			c4.49,5.61,10.96,8.42,19.38,8.42S665.53,215.24,670.04,209.67z"/>
		<path class="st2" d="M774.72,224.31c-6.14-3.62-10.87-8.79-14.2-15.52c-3.33-6.73-5-14.53-5-23.41c0-8.88,1.67-16.68,5-23.41
			c3.33-6.73,8.07-11.9,14.2-15.52c6.14-3.62,13.24-5.44,21.3-5.44c8.07,0,15.19,1.82,21.39,5.44c6.2,3.62,10.96,8.79,14.29,15.52
			c3.33,6.73,5,14.53,5,23.41c0,8.88-1.67,16.68-5,23.41c-3.33,6.73-8.09,11.9-14.29,15.52c-6.2,3.62-13.33,5.44-21.39,5.44
			C787.96,229.75,780.86,227.95,774.72,224.31z M815.4,209.67c4.49-5.55,6.75-13.65,6.75-24.28c0-10.41-2.28-18.43-6.84-24.11
			c-4.56-5.68-10.98-8.5-19.29-8.5c-8.31,0-14.73,2.83-19.29,8.5s-6.84,13.7-6.84,24.11c0,10.52,2.26,18.59,6.75,24.2
			s10.96,8.42,19.38,8.42C804.44,218,810.89,215.24,815.4,209.67z"/>
	</g>
	<g>
		<g>
			<path class="st2" d="M804.38,178.4c-6.62-15.3-13-30.73-19.99-45.85c-6.79-14.73-15.52-28.41-21.87-43.38
				c-1.58,2.74-3.16,5.5-4.73,8.24c5.02-0.61,10.08-1.01,15.15-1.1c4.12-0.07,8.61-0.11,12.34,1.97c5.98,3.33,5.41,11.59-1.42,13.3
				c-6.84,1.71-3.95,12.27,2.92,10.56c13.02-3.24,18.02-19.35,9.07-29.37c-9.03-10.13-26.06-7.8-38.03-6.31
				c-4.41,0.55-6.47,4.16-4.73,8.24c6.36,14.97,15.08,28.65,21.87,43.38c6.99,15.12,13.35,30.58,19.99,45.85
				c1.18,2.72,5.15,3.33,7.5,1.97C805.21,184.25,805.56,181.11,804.38,178.4L804.38,178.4z"/>
			<path class="st2" d="M592.54,38.78c-7.01,2.63-10.98,8.31-9.53,15.87c1.27,6.6,6.31,12.19,10.89,16.79c0-2.59,0-5.17,0-7.76
				c-0.57,0.72,0.09,0.07,0.22-0.07c0.68-0.59,0.33,0.28,0.02-0.09c0,0,1.42-0.09-0.13,0c-0.39,0.02-0.79,0.02-1.18,0.02
				c-1.71,0-3.42-0.18-5.13-0.26c-3.79-0.18-7.28,0.22-10.24,2.78c-6.31,5.44-5.79,14.82,0.61,19.88c3.51,2.76,7.74,4.03,12.05,4.89
				c2.02,0.39,4.03,0.72,6.07,1.05c0.96,0.18,1.95,0.31,2.92,0.48c0.42,0.07,1.16,0.44,1.51,0.33c0.39,0.15,0.28,0-0.31-0.46
				c0.35-1.12,0.7-2.26,1.03-3.38c-0.15-0.04-2.35,1.1-2.65,1.21c-1.12,0.37-2.3,0.75-3.46,0.9c-2.24,0.31-4.45,0.15-6.62,0.96
				c-4.43,1.67-9.01,5.81-8.85,10.87c0.15,5.08,4.43,9.01,8.35,11.55c3.95,2.56,8.13,4.65,12.49,6.36
				c7.76,3.05,16.04,4.23,24.26,5.17c7.89,0.9,15.8,2.17,23.74,2.74c7.52,0.53,15.1,0.57,22.64,0.48
				c7.06-0.09,14.07-0.37,21.06-1.34c8.59-1.21,16.77-4.65,24.15-9.1c15.17-9.14,26.83-25.23,32.57-41.84
				c6.36-18.37,3.84-39.82-9.75-54.29c-5.96-6.36-13.94-11.22-22.47-13.15c-9.38-2.1-18.72-0.55-27.4,3.4
				c-18.17,8.26-30.62,25.18-45.79,37.48c-3.02,2.45-6.68,4.84-10.65,5.28c-2.94,0.33-5.68-0.57-8.35-1.95
				c-6.64-3.46-12.14-8.77-18.89-11.99c-3.75-1.8-7.58-2.94-11.77-3.05c-7.06-0.15-7.06,10.81,0,10.96
				c5.92,0.13,11.66,4.6,16.75,8.2c6.01,4.23,12.38,8.37,19.95,8.81c9.1,0.55,16.94-5.04,23.39-10.81
				c7.15-6.4,13.96-13.19,21.08-19.59c11.88-10.67,26.76-20.98,43.31-14.82c15.23,5.68,23.41,21.41,22.97,37.09
				c-0.24,8.66-2.92,16.92-7.06,24.46c-3.75,6.84-8.09,13.35-13.7,18.83c-5.74,5.61-12.82,9.88-20.3,12.78
				c-5.9,2.28-12.08,3.02-18.35,3.35c-6.97,0.37-13.96,0.42-20.95,0.33c-3.53-0.04-7.08-0.15-10.61-0.35
				c-1.4-0.09-2.78-0.18-4.16-0.31c-0.61-0.07-1.21-0.13-1.82-0.18c-0.24-0.02-0.48-0.07-0.72-0.09c1.47,0.18-0.55-0.09-0.83-0.13
				c-15.54-2.19-31.91-2.13-45.92-10.1c-1.58-0.9-3.33-1.82-4.76-2.94c-0.53-0.42-0.88-1.34-1.38-1.64
				c0.55,0.33-0.24-0.42-0.26-0.42c-0.2,1.78-0.31,2.37-0.31,1.73c0-0.13,0.09-0.24,0.26-0.31c0.55-0.22,1.01-0.94,1.62-1.18
				c0.66-0.26,1.21-0.22,1.91-0.28c2.39-0.18,4.73-0.46,7.04-1.21c4.49-1.45,9.84-3.92,9.91-9.4c0.04-5.46-4.62-8.77-9.49-9.64
				c-3.9-0.7-7.85-1.18-11.68-2.17c-1.53-0.39-3-0.79-4.32-1.67c-0.48-0.33-1.05-0.75-1.38-1.1c0.22,0.24-0.57-0.81-0.28-0.37
				c0.15,0.24-0.44-0.44-0.11-0.22c0.26,0.18,0.07-0.57-0.04-0.11c-0.15,0.59,0.04-0.22,0.07-0.28c0.09-0.79,0.11-0.48-0.04-0.11
				c0.13-0.28,0.31-0.61,0.48-0.88c0.04-0.07,0.5-0.7,0.13-0.22c-0.39,0.5,0.22-0.22,0.35-0.33c1.16-0.99-0.66,0.37-0.28,0.04
				c0.11-0.09,0.55-0.15,0.68-0.15c-1.01,0.09-0.02,0.04,0.13,0.04c0.7,0,1.42,0,2.13,0.02c1.6,0.07,3.22,0.22,4.82,0.26
				c3.24,0.07,7.21-0.33,9.4-3.07c1.86-2.32,2.26-5.46,0-7.76c-2.76-2.81-6.42-6.75-7.52-9.91c-0.13-0.39-0.5-1.82-0.48-1.58
				c0.09,0.5,0-2.13-0.07-1.03c0.02-0.33,0.28-0.7-0.02-0.24c0.09-0.13,0.44-0.72,0.09-0.33c0.48-0.53,0.96-0.92,1.82-1.25
				c2.76-1.03,4.67-3.7,3.84-6.75C598.55,39.94,595.33,37.73,592.54,38.78L592.54,38.78z"/>
			<path class="st2" d="M706.14,56.16c7.06,0,7.06-10.96,0-10.96C699.09,45.2,699.09,56.16,706.14,56.16L706.14,56.16z"/>
			<path class="st2" d="M724.05,59.8c7.06,0,7.06-10.96,0-10.96S716.99,59.8,724.05,59.8L724.05,59.8z"/>
		</g>
	</g>
	<g>
		<g>
			<path class="st2" d="M657.09,186.51c27.68-19.35,59.79-30.36,92.58-37.46c9.4-2.04,18.89-3.77,28.38-5.33
				c2.92-0.48,4.56-4.1,3.84-6.75c-0.85-3.11-3.81-4.32-6.75-3.84c-33.75,5.52-67.44,13.48-98.21,28.82
				c-8.81,4.41-17.29,9.42-25.38,15.08c-2.41,1.69-3.55,4.8-1.97,7.5C651,186.92,654.66,188.19,657.09,186.51L657.09,186.51z"/>
		</g>
	</g>
</g>
</svg>
